<?xml version="1.0" encoding="utf-8"?>
<!-- Generator: Adobe Illustrator 25.0.1, SVG Export Plug-In . SVG Version: 6.00 Build 0)  -->
<svg version="1.1" id="Layer_1" xmlns="http://www.w3.org/2000/svg" xmlns:xlink="http://www.w3.org/1999/xlink" x="0px" y="0px"
	 viewBox="0 0 186 30" style="enable-background:new 0 0 186 30;" xml:space="preserve">
<style type="text/css">
	.st0{fill:url(#SVGID_1_);}
	.st1{fill:#E0E0DE;}
	.st2{fill:#D6D6D4;}
	.st3{fill:#0B88DD;}
	.st4{fill:#3D4D63;}
	.st5{fill:#2A71AD;}
	.st6{fill:#FFB531;}
	.st7{fill:#0B77B2;}
	.st8{clip-path:url(#SVGID_3_);fill:#FFB531;stroke:#FFB531;stroke-width:30;stroke-miterlimit:10;}
	.st9{clip-path:url(#SVGID_3_);}
	.st10{fill:#2F373B;}
	.st11{fill:#181E21;}
	.st12{fill:#F2F2F2;}
	.st13{fill:#545F63;}
	.st14{fill:#E2E0E0;}
	.st15{fill:#D1D1D1;}
	.st16{fill:#FFFFFF;stroke:#FFFFFF;stroke-width:0.7;stroke-miterlimit:10;}
	.st17{clip-path:url(#SVGID_5_);fill:#FFFFFF;}
	.st18{clip-path:url(#SVGID_5_);fill:none;stroke:#FFB531;stroke-width:30;stroke-miterlimit:10;}
	.st19{clip-path:url(#SVGID_5_);}
	.st20{fill:#FFFFFF;stroke:#FFFFFF;stroke-width:0.5;stroke-miterlimit:10;}
	.st21{fill:#EAEADA;}
	.st22{fill:#E2DFC7;}
	.st23{fill:#00A0F9;}
	.st24{fill:#0088F7;}
	.st25{clip-path:url(#SVGID_9_);}
	.st26{fill:url(#coin_1_);}
	.st27{fill:#FFFFFF;}
	.st28{stroke:#FFFFFF;stroke-width:2.5532;stroke-miterlimit:10;}
	.st29{fill:#F7F7F7;}
	.st30{fill:#343434;}
	.st31{fill:#8C8C8C;}
	.st32{fill:#3C3C3B;}
	.st33{fill:#141414;}
	.st34{fill:#393939;}
	.st35{fill:#F0B90B;}
	.st36{clip-path:url(#SVGID_17_);}
	.st37{fill:url(#coin_3_);}
	.st38{stroke:#FFFFFF;stroke-width:1.8702;stroke-miterlimit:10;}
	.st39{fill:#3086CD;}
	.st40{fill:#60A917;}
	.st41{fill:#FFFFFF;stroke:#FFFFFF;stroke-miterlimit:10;}
	.st42{fill:#FFFFFF;stroke:#FFFFFF;stroke-width:5.000000e-02;stroke-miterlimit:10;}
	.st43{fill:#81A60B;}
	.st44{fill:#B9D612;}
	.st45{fill:#D1E84B;}
	.st46{fill:#6D8F00;}
	.st47{fill:#678F01;}
	.st48{fill:#4E7521;}
	.st49{fill:#507801;}
	.st50{fill:#6A9612;}
	.st51{fill:#91BA32;}
	.st52{fill:#B7DB4E;}
	.st53{fill:#86AB22;}
	.st54{fill:#C6E35F;}
	.st55{fill:#8BAD15;}
</style>
<g>
	<g>
		<circle class="st10" cx="24.4" cy="5.6" r="5.2"/>
		<circle class="st11" cx="24.4" cy="5.6" r="3.3"/>
		<circle class="st10" cx="5.6" cy="5.6" r="5.2"/>
		<circle class="st11" cx="5.6" cy="5.6" r="3.3"/>
		<ellipse class="st12" cx="15" cy="16.4" rx="13.6" ry="13.2"/>
		<ellipse transform="matrix(0.866 -0.5 0.5 0.866 -5.4724 13.0035)" class="st13" cx="21.5" cy="16.7" rx="4" ry="4.7"/>
		<path class="st14" d="M5.6,15.9c0-5.2,2.6-9.8,6.4-12.4C5.9,4.9,1.4,10.1,1.4,16.4c0,7.1,5.8,12.8,13,13.1
			C9.2,27.5,5.6,22.2,5.6,15.9z"/>
		<path class="st15" d="M19.2,23.5c0-1-1.2-1.9-2.6-1.9c-0.6,0-1.2,0.2-1.6,0.4c-0.4-0.3-1-0.4-1.6-0.4c-1.4,0-2.6,0.8-2.6,1.9
			c0,0.6,0.4,1.2,1.1,1.5c0.1,1.5,1.5,2.7,3.2,2.7s3.1-1.2,3.2-2.7C18.8,24.6,19.2,24.1,19.2,23.5z"/>
		<path class="st10" d="M17.3,21.6c0,0.8-1.1,1.9-2.3,1.9s-2.3-1.1-2.3-1.9c0-0.8,1.1-1.4,2.3-1.4S17.3,20.8,17.3,21.6z"/>
		<g>
			<path class="st11" d="M15.9,23c-1.3,0-2.3-1.3-2.3-2.1c0-0.1,0-0.3,0.1-0.4c-0.6,0.3-1,0.7-1,1.2c0,0.8,1.1,1.9,2.3,1.9
				c0.6,0,1.1-0.2,1.6-0.6C16.4,22.9,16.2,23,15.9,23z"/>
			<ellipse transform="matrix(0.5 -0.866 0.866 0.5 -10.2373 15.694)" class="st13" cx="8.5" cy="16.7" rx="4.7" ry="4"/>
		</g>
		<path d="M19.1,23c-0.2,0-0.4,0.3-0.3,0.5c0,0,0.1,0.4-0.2,0.6c-0.4,0.4-1.3,0.6-2.7,0.4c-0.2,0-0.3,0-0.5,0v-0.7
			c0.5-0.1,1.1-0.3,1.5-0.7c0.5-0.5,0.8-1,0.8-1.6c0-1-1.2-1.8-2.8-1.8s-2.8,0.8-2.8,1.8c0,0.5,0.3,1.1,0.8,1.6
			c0.4,0.4,1,0.6,1.5,0.7v0.7c-0.2,0-0.3,0-0.5,0c-1.3,0.2-2.3,0-2.7-0.4c-0.3-0.3-0.2-0.6-0.2-0.6c0-0.2-0.1-0.5-0.3-0.5
			c-0.2,0-0.5,0.1-0.5,0.3c-0.1,0.3,0,0.9,0.4,1.4c0.1,0.1,0.2,0.2,0.3,0.3c0.1,1.7,1.8,3.1,3.9,3.1s3.8-1.4,3.9-3.1
			c0.1-0.1,0.2-0.2,0.3-0.3c0.5-0.5,0.5-1.1,0.4-1.4C19.6,23.1,19.4,23,19.1,23z M13.1,21.6c0-0.6,1-1,1.9-1s1.9,0.4,1.9,1
			c0,0.5-0.8,1.4-1.9,1.4S13.1,22.1,13.1,21.6z M15,27.2c-1.4,0-2.6-0.8-3-1.8c0.6,0.1,1.3,0.1,2.1,0c0.3,0,0.5-0.1,0.8-0.1
			s0.5,0,0.8,0.1c0.8,0.1,1.6,0.1,2.1,0C17.6,26.5,16.4,27.2,15,27.2z"/>
		<path d="M27.7,10.1c1.4-1,2.3-2.7,2.3-4.5C30,2.5,27.5,0,24.4,0c-0.6,0-1.1,0.1-1.6,0.2c0,0,0,0,0,0c-1.6,0.5-2.9,1.6-3.5,3.2
			c-1.1-0.3-2.2-0.5-3.4-0.6c-0.3,0-0.5,0-0.8,0s-0.5,0-0.8,0c-1.2,0.1-2.3,0.3-3.4,0.6c-0.6-1.5-2-2.7-3.5-3.2c0,0,0,0,0,0
			C6.7,0.1,6.2,0,5.6,0C5.5,0,5.4,0,5.3,0C5.1,0,4.9,0,4.8,0.1c-0.1,0-0.2,0-0.3,0c-0.1,0-0.2,0-0.3,0.1c-0.1,0-0.2,0-0.3,0.1
			c0,0-0.1,0-0.1,0c-0.1,0-0.3,0.1-0.4,0.1C3.1,0.6,2.9,0.7,2.6,0.9C2.4,1,2.1,1.2,1.9,1.4C1.8,1.5,1.7,1.6,1.5,1.7
			C1.5,1.8,1.4,1.9,1.4,1.9C1.3,2,1.3,2.1,1.2,2.1C1,2.4,0.8,2.7,0.6,3.1C0.2,3.8,0,4.7,0,5.6c0,1.8,0.9,3.5,2.3,4.5
			c0,0,0.1,0.1,0.1,0.1c-1,1.8-1.5,3.9-1.5,6c0,0.1,0,0.1,0,0.2c0,3.6,1.5,7,4.1,9.6c2.7,2.6,6.2,4,9.9,4s7.3-1.4,9.9-4
			c0.3-0.3,0.6-0.7,0.9-1c2.1-2.4,3.2-5.4,3.2-8.6c0-2.2-0.5-4.3-1.5-6.2C27.6,10.2,27.6,10.2,27.7,10.1z M24.5,2.8
			C24.5,2.8,24.5,2.8,24.5,2.8c0.1,0,0.1,0,0.2,0c0,0,0,0,0,0c0,0,0.1,0,0.1,0c0,0,0,0,0,0c0,0,0.1,0,0.1,0c0,0,0,0,0,0
			c0,0,0.1,0,0.1,0c0,0,0,0,0,0c0.1,0,0.2,0,0.3,0.1c0,0,0,0,0,0c1,0.4,1.8,1.4,1.9,2.5c0,0,0,0,0,0c0,0,0,0.1,0,0.1c0,0,0,0,0,0
			c0,0.9-0.4,1.8-1.2,2.3c0,0,0,0,0,0c-0.3-0.4-0.7-0.8-1.1-1.2c-1-0.9-2-1.7-3.2-2.3c0.4-1,1.5-1.7,2.6-1.7c0,0,0,0,0,0
			C24.4,2.8,24.5,2.8,24.5,2.8z M24.4,0.9c2.6,0,4.7,2.1,4.7,4.7c0,0.1,0,0.3,0,0.4c-0.1,1.4-0.9,2.6-2,3.4
			c-0.2-0.3-0.4-0.6-0.6-0.8c1-0.7,1.6-1.8,1.6-3c0,0,0,0,0,0c0,0,0,0,0,0c0-0.1,0-0.1,0-0.2c0,0,0,0,0,0c0-0.4-0.1-0.9-0.3-1.2
			c0,0,0,0,0,0c-0.3-0.7-0.8-1.3-1.5-1.7c0,0,0,0,0,0c-0.2-0.1-0.4-0.2-0.6-0.3c0,0,0,0,0,0c-0.1,0-0.2-0.1-0.3-0.1c0,0,0,0,0,0
			c0,0-0.1,0-0.1,0c0,0,0,0,0,0c-0.1,0-0.1,0-0.2,0c0,0,0,0-0.1,0c0,0-0.1,0-0.1,0c0,0,0,0,0,0c-0.1,0-0.1,0-0.2,0c0,0,0,0,0,0
			c-0.1,0-0.1,0-0.2,0c-1.5,0-2.8,0.9-3.4,2.2c-0.3-0.1-0.6-0.3-0.9-0.4c0.6-1.3,1.7-2.2,3-2.6C23.5,0.9,23.9,0.9,24.4,0.9z
			 M4.6,2.9C4.6,2.9,4.6,2.9,4.6,2.9c0.1,0,0.2-0.1,0.3-0.1c0,0,0,0,0,0c0,0,0.1,0,0.1,0c0,0,0,0,0,0c0,0,0.1,0,0.1,0c0,0,0,0,0,0
			c0,0,0.1,0,0.1,0c0,0,0,0,0,0c0,0,0.1,0,0.1,0c0,0,0,0,0,0c0,0,0.1,0,0.1,0c0,0,0,0,0,0c1.2,0,2.2,0.7,2.6,1.7
			C7.1,5.1,6,5.9,5.1,6.8C4.7,7.2,4.3,7.6,4,8c0,0,0,0,0,0C3.2,7.4,2.8,6.5,2.8,5.6c0,0,0,0,0,0c0,0,0-0.1,0-0.1c0,0,0,0,0,0
			C2.8,4.3,3.6,3.3,4.6,2.9z M1.2,3.9c0-0.1,0.1-0.1,0.1-0.2c0.1-0.2,0.2-0.4,0.3-0.6c0-0.1,0.1-0.1,0.1-0.2c0,0,0-0.1,0.1-0.1
			C2,2.5,2.3,2.2,2.6,2c0.1,0,0.1-0.1,0.2-0.1c0.3-0.2,0.6-0.4,0.9-0.5c0.1-0.1,0.3-0.1,0.4-0.2C4.3,1.1,4.5,1,4.7,1
			c0.1,0,0.2,0,0.2,0c0.1,0,0.2,0,0.2,0c0.2,0,0.3,0,0.5,0c0.5,0,0.9,0.1,1.4,0.2c1.3,0.4,2.4,1.4,3,2.6C9.6,3.8,9.3,4,9,4.1
			C8.4,2.8,7.1,1.9,5.6,1.9c-0.1,0-0.1,0-0.2,0c0,0,0,0,0,0c-0.1,0-0.1,0-0.2,0c0,0,0,0,0,0c0,0-0.1,0-0.1,0c0,0,0,0-0.1,0
			c-0.1,0-0.1,0-0.2,0c0,0,0,0,0,0c0,0-0.1,0-0.1,0c0,0,0,0,0,0C4.5,2,4.4,2.1,4.3,2.1c0,0,0,0,0,0C4.1,2.2,3.9,2.3,3.7,2.4
			c0,0,0,0,0,0C3,2.8,2.5,3.4,2.2,4.1c0,0,0,0,0,0C2,4.6,1.9,5,1.9,5.4c0,0,0,0,0,0c0,0.1,0,0.1,0,0.2c0,0,0,0,0,0
			c0,1.2,0.6,2.3,1.6,3C3.3,8.9,3.1,9.2,2.9,9.5C1.8,8.7,1,7.4,0.9,6c0-0.1,0-0.3,0-0.4C0.9,5,1,4.4,1.2,3.9z M24.6,25.2
			c-0.1,0.1-0.2,0.2-0.2,0.2c-2.5,2.4-5.8,3.7-9.3,3.7s-6.8-1.3-9.3-3.7c-0.1-0.1-0.2-0.2-0.2-0.2c-2.3-2.4-3.6-5.5-3.6-8.8
			c0-3.4,1.4-6.6,3.9-9C7.9,5.2,10.9,4,14,3.7c0.3,0,0.7,0,1,0s0.7,0,1,0c3.2,0.2,6.1,1.5,8.3,3.7c2.5,2.4,3.9,5.6,3.9,9
			C28.2,19.7,26.9,22.8,24.6,25.2z"/>
		<path d="M13,15.2c-0.2-1.3-0.9-2.3-2-2.9c-1-0.6-2.3-0.7-3.5-0.3c-0.5,0.2-0.9,0.4-1.4,0.7c-0.5,0.4-0.9,0.8-1.3,1.3c0,0,0,0,0,0
			c0,0,0,0.1-0.1,0.1c0,0-0.1,0.1-0.1,0.1c0,0,0,0,0,0c0,0.1-0.1,0.1-0.1,0.2c0,0,0,0,0,0c0,0.1-0.1,0.1-0.1,0.2c0,0,0,0,0,0
			c0,0.1-0.1,0.1-0.1,0.2c0,0,0,0,0,0c-0.2,0.4-0.3,0.8-0.4,1.2c0,0,0,0,0,0c0,0.1,0,0.1,0,0.2c0,0,0,0,0,0.1c0,0,0,0.1,0,0.1
			c0,0,0,0.1,0,0.1c0,0,0,0,0,0c-0.1,0.4-0.1,0.8,0,1.2c0,0,0,0,0,0.1c0.1,0.7,0.3,1.4,0.7,2c0,0,0,0,0,0c0.1,0.1,0.1,0.2,0.2,0.3
			c0,0,0,0,0,0c0,0.1,0.1,0.1,0.1,0.1c0,0,0,0,0,0c0,0,0.1,0.1,0.1,0.1c0,0,0,0,0.1,0.1c0,0,0.1,0.1,0.1,0.1c0,0,0.1,0.1,0.1,0.1
			c0,0,0,0,0.1,0.1c0,0,0.1,0.1,0.1,0.1c0,0,0,0,0,0C5.6,21,5.7,21,5.7,21c0,0,0,0,0,0c0.1,0,0.1,0.1,0.2,0.1c0.6,0.4,1.3,0.5,2,0.5
			c1.7,0,3.4-1,4.4-2.8c0.5-0.9,0.8-1.9,0.8-2.8C13.1,15.8,13.1,15.5,13,15.2z M6.5,20.5c-0.1,0-0.1-0.1-0.2-0.1c0,0,0,0,0,0
			c-0.1,0-0.1-0.1-0.2-0.1c0,0,0,0,0,0c0,0-0.1-0.1-0.1-0.1c0,0,0,0,0,0c0,0-0.1-0.1-0.1-0.1c0,0,0,0,0,0c0,0-0.1-0.1-0.1-0.1
			c0,0,0,0,0,0c0,0-0.1-0.1-0.1-0.1c0,0,0,0,0,0c0,0-0.1-0.1-0.1-0.1c0,0,0,0,0,0c0,0,0-0.1-0.1-0.1c0,0,0,0,0-0.1
			C5,19,4.8,18.4,4.8,17.7c0,0,0,0,0-0.1c0,0,0-0.1,0-0.1c0,0,0,0,0-0.1c0,0,0-0.1,0-0.1c0,0,0-0.1,0-0.1c0,0,0-0.1,0-0.1
			c0,0,0-0.1,0-0.1c0,0,0-0.1,0-0.1c0,0,0-0.1,0-0.1c0,0,0,0,0,0c0-0.3,0.1-0.6,0.2-0.8c0,0,0,0,0,0c0,0,0-0.1,0-0.1c0,0,0,0,0,0
			c0,0,0-0.1,0-0.1c0,0,0,0,0-0.1c0,0,0-0.1,0.1-0.1c0,0,0,0,0-0.1c0,0,0-0.1,0-0.1c0,0,0-0.1,0-0.1c0,0,0-0.1,0-0.1
			c0,0,0.1-0.1,0.1-0.1c0,0,0,0,0,0c0.6-1,1.4-1.7,2.4-2.1c0.1,0,0.1,0,0.2-0.1c0,0,0,0,0,0c0,0,0.1,0,0.1,0c0,0,0,0,0.1,0
			c0,0,0.1,0,0.1,0c0,0,0,0,0.1,0c0,0,0.1,0,0.1,0c0,0,0,0,0.1,0c0,0,0.1,0,0.1,0c0,0,0,0,0,0c0.1,0,0.1,0,0.2,0c0,0,0,0,0,0
			c0,0,0.1,0,0.1,0c0,0,0,0,0,0c0.1,0,0.1,0,0.2,0c0,0,0,0,0,0c0.1,0,0.1,0,0.2,0c0,0,0,0,0,0c0.1,0,0.1,0,0.2,0c0,0,0,0,0,0
			c0,0,0.1,0,0.1,0c0,0,0,0,0,0c0.1,0,0.1,0,0.2,0c0,0,0,0,0,0c0,0,0.1,0,0.1,0c0,0,0,0,0,0c0,0,0.1,0,0.1,0.1c0,0,0,0,0,0
			c0,0,0.1,0,0.1,0.1c0,0,0,0,0,0c0,0,0.1,0,0.1,0.1c0,0,0,0,0,0c0.8,0.5,1.4,1.3,1.5,2.3c0,0.3,0.1,0.5,0.1,0.8
			c0,0.8-0.2,1.6-0.7,2.4c0,0.1-0.1,0.1-0.1,0.2C10.3,20.5,8.1,21.3,6.5,20.5z"/>
		<g>
			<path class="st10" d="M20.8,18L20.8,18c-0.8,0-1.5-0.7-1.5-1.5v-0.5c0-0.8,0.7-1.5,1.5-1.5l0,0c0.8,0,1.5,0.7,1.5,1.5v0.5
				C22.2,17.4,21.6,18,20.8,18z"/>
			<path class="st11" d="M20.9,14.6v1.9c0,0.4,0.4,0.8,0.8,0.8c0.4,0,0.8-0.4,0.8-0.8v-0.3C22.5,15.3,21.8,14.6,20.9,14.6z"/>
			<circle class="st42" cx="20.9" cy="15.7" r="0.5"/>
			<path d="M20.9,14.1C20.9,14.1,20.9,14.1,20.9,14.1L20.9,14.1L20.9,14.1L20.9,14.1c-1.2,0-2.1,0.9-2.1,2.1c0,0,0,0,0,0v0.5
				c0,1.1,0.9,2,2,2.1c0,0,0.1,0,0.1,0c1.2,0,2.1-0.9,2.1-2.1v-0.5c0,0,0,0,0,0C23,15,22.1,14.1,20.9,14.1z M19.8,16.2
				c0-0.6,0.5-1.1,1.1-1.1c0.6,0,1.1,0.5,1.1,1.1v0.5c0,0.6-0.5,1.1-1.1,1.1c-0.6,0-1.1-0.5-1.1-1.1V16.2z"/>
		</g>
		<g>
			<path class="st10" d="M9.1,18.3L9.1,18.3c-0.9,0-1.6-0.7-1.6-1.6v-0.5c0-0.9,0.7-1.6,1.6-1.6l0,0c0.9,0,1.6,0.7,1.6,1.6v0.5
				C10.7,17.6,10,18.3,9.1,18.3z"/>
			<path class="st11" d="M9.1,14.6v1.9c0,0.4,0.4,0.8,0.8,0.8c0.4,0,0.8-0.4,0.8-0.8v-0.3C10.7,15.3,10,14.6,9.1,14.6z"/>
			<circle class="st42" cx="9.1" cy="15.7" r="0.5"/>
			<path d="M9.1,14.1C9.1,14.1,9.1,14.1,9.1,14.1L9.1,14.1C9.1,14.1,9.1,14.1,9.1,14.1L9.1,14.1C7.9,14.1,7,15,7,16.2c0,0,0,0,0,0
				v0.5c0,1.2,0.9,2.1,2.1,2.1c0,0,0.1,0,0.1,0c1.1-0.1,2-1,2-2.1v-0.5c0,0,0,0,0,0C11.2,15,10.3,14.1,9.1,14.1z M8,16.2
				c0-0.6,0.5-1.1,1.1-1.1c0.6,0,1.1,0.5,1.1,1.1v0.5c0,0.6-0.5,1.1-1.1,1.1c-0.6,0-1.1-0.5-1.1-1.1V16.2z"/>
		</g>
		<path d="M26.1,16.5c0,0,0-0.1,0-0.1c0,0,0,0,0-0.1c0-0.1,0-0.1,0-0.2c0,0,0,0,0,0c-0.1-0.4-0.2-0.8-0.4-1.2c0,0,0,0,0,0
			c0-0.1-0.1-0.1-0.1-0.2c0,0,0,0,0,0c0-0.1-0.1-0.1-0.1-0.2c0,0,0,0,0,0c0-0.1-0.1-0.1-0.1-0.2c0,0,0,0,0,0c0,0-0.1-0.1-0.1-0.1
			c0,0,0-0.1-0.1-0.1c0,0,0,0,0,0c-0.4-0.5-0.8-0.9-1.3-1.3c-0.4-0.3-0.9-0.6-1.4-0.7c-1.2-0.4-2.5-0.3-3.5,0.3
			c-1,0.6-1.7,1.6-2,2.9c-0.1,0.3-0.1,0.6-0.1,0.9c0,1,0.3,1.9,0.8,2.8c1,1.7,2.7,2.8,4.4,2.8c0.7,0,1.4-0.2,2-0.5
			c0.1,0,0.1-0.1,0.2-0.1c0,0,0,0,0,0c0.1,0,0.1-0.1,0.2-0.1c0,0,0,0,0,0c0,0,0.1-0.1,0.1-0.1c0,0,0,0,0.1-0.1c0,0,0.1-0.1,0.1-0.1
			c0,0,0.1-0.1,0.1-0.1c0,0,0,0,0.1-0.1c0,0,0.1-0.1,0.1-0.1c0,0,0,0,0,0c0,0,0.1-0.1,0.1-0.1c0,0,0,0,0,0c0.1-0.1,0.1-0.2,0.2-0.3
			c0,0,0,0,0,0c0.4-0.6,0.6-1.3,0.7-2c0,0,0,0,0-0.1c0-0.4,0-0.8,0-1.2c0,0,0,0,0,0C26.1,16.6,26.1,16.6,26.1,16.5z M24.6,19.6
			C24.6,19.6,24.5,19.6,24.6,19.6c-0.1,0.1-0.1,0.1-0.1,0.1c0,0-0.1,0.1-0.1,0.1c0,0,0,0,0,0c0,0-0.1,0.1-0.1,0.1c0,0,0,0,0,0
			c0,0-0.1,0.1-0.1,0.1c0,0,0,0,0,0c0,0-0.1,0.1-0.1,0.1c0,0,0,0,0,0c0,0-0.1,0.1-0.1,0.1c0,0,0,0,0,0c0,0-0.1,0.1-0.2,0.1
			c0,0,0,0,0,0c-0.1,0-0.1,0.1-0.2,0.1c-1.6,0.8-3.8,0-4.9-1.8c0-0.1-0.1-0.1-0.1-0.2c-0.4-0.7-0.7-1.6-0.7-2.4c0-0.3,0-0.5,0.1-0.8
			c0.2-1,0.7-1.8,1.5-2.3c0,0,0,0,0,0c0,0,0.1-0.1,0.1-0.1c0,0,0,0,0,0c0,0,0.1,0,0.1-0.1c0,0,0,0,0,0c0,0,0.1,0,0.1-0.1
			c0,0,0,0,0,0c0,0,0.1,0,0.1,0c0,0,0,0,0,0c0,0,0.1,0,0.2,0c0,0,0,0,0,0c0,0,0.1,0,0.1,0c0,0,0,0,0,0c0.1,0,0.1,0,0.2,0
			c0,0,0,0,0,0c0.1,0,0.1,0,0.2,0c0,0,0,0,0,0c0.1,0,0.1,0,0.2,0c0,0,0,0,0,0c0,0,0.1,0,0.1,0c0,0,0,0,0,0c0.1,0,0.1,0,0.2,0
			c0,0,0,0,0,0c0,0,0.1,0,0.1,0c0,0,0,0,0.1,0c0,0,0.1,0,0.1,0c0,0,0,0,0.1,0c0,0,0.1,0,0.1,0c0,0,0,0,0.1,0c0,0,0.1,0,0.1,0
			c0,0,0,0,0,0c0.1,0,0.1,0,0.2,0.1c1,0.4,1.9,1.1,2.4,2.1c0,0,0,0,0,0c0,0,0.1,0.1,0.1,0.1c0,0,0,0.1,0,0.1c0,0,0,0.1,0,0.1
			c0,0,0,0.1,0,0.1c0,0,0,0,0,0.1c0,0,0,0.1,0.1,0.1c0,0,0,0,0,0.1c0,0,0,0.1,0,0.1c0,0,0,0,0,0c0,0,0,0.1,0,0.1c0,0,0,0,0,0
			c0.1,0.3,0.1,0.6,0.2,0.8c0,0,0,0,0,0c0,0,0,0.1,0,0.1c0,0,0,0.1,0,0.1c0,0,0,0.1,0,0.1c0,0,0,0.1,0,0.1c0,0,0,0.1,0,0.1
			c0,0,0,0.1,0,0.1c0,0,0,0,0,0.1c0,0,0,0.1,0,0.1c0,0,0,0,0,0.1C25.2,18.4,25,19,24.6,19.6C24.6,19.5,24.6,19.6,24.6,19.6z"/>
		<path d="M27.5,10.2c0,0,0.1-0.1,0.1-0.1c1.4-1,2.3-2.7,2.3-4.5c0-0.9-0.2-1.8-0.6-2.6c-0.2-0.3-0.4-0.6-0.6-0.9
			c-0.1-0.1-0.1-0.1-0.2-0.2c-0.1-0.1-0.1-0.1-0.2-0.2c-0.1-0.1-0.3-0.3-0.4-0.4c-0.2-0.2-0.4-0.3-0.6-0.5c-0.3-0.2-0.5-0.3-0.8-0.4
			c-0.1-0.1-0.3-0.1-0.4-0.1c0,0-0.1,0-0.1,0c-0.1,0-0.2-0.1-0.3-0.1c-0.1,0-0.2,0-0.3-0.1c-0.1,0-0.2,0-0.3,0c-0.2,0-0.4,0-0.6-0.1
			c-0.1,0-0.2,0-0.3,0c-0.6,0-1.1,0.1-1.6,0.2c0,0,0,0,0,0c-1.6,0.5-2.9,1.6-3.5,3.2c-1.1-0.3-2.2-0.5-3.4-0.6c-0.3,0-0.5,0-0.8,0
			s-0.5,0-0.8,0c-1.2,0.1-2.3,0.3-3.4,0.6c-0.6-1.5-2-2.7-3.5-3.2c0,0,0,0,0,0C6.7,0.1,6.2,0,5.6,0C2.5,0,0,2.5,0,5.6
			c0,1.8,0.9,3.5,2.3,4.5c0,0,0.1,0.1,0.1,0.1c-1,1.9-1.5,4-1.5,6.2c0,3.2,1.1,6.2,3.2,8.6c0.3,0.3,0.6,0.7,0.9,1
			c2.7,2.6,6.2,4,9.9,4s7.3-1.4,9.9-4c2.7-2.6,4.1-6,4.1-9.6c0-0.1,0-0.1,0-0.2C29,14.1,28.5,12.1,27.5,10.2z M23,1.1
			c0.4-0.1,0.9-0.2,1.4-0.2c0.2,0,0.3,0,0.5,0c0.1,0,0.2,0,0.2,0c0.1,0,0.2,0,0.2,0c0.2,0,0.4,0.1,0.6,0.2c0.1,0,0.3,0.1,0.4,0.2
			c0.3,0.1,0.6,0.3,0.9,0.5c0.1,0,0.1,0.1,0.2,0.1c0.3,0.2,0.6,0.5,0.8,0.8c0,0,0,0.1,0.1,0.1c0,0.1,0.1,0.1,0.1,0.2
			c0.1,0.2,0.2,0.4,0.3,0.6c0,0.1,0.1,0.1,0.1,0.2C29,4.4,29.1,5,29.1,5.6c0,0.1,0,0.3,0,0.4c-0.1,1.4-0.9,2.6-2,3.4
			c-0.2-0.3-0.4-0.6-0.6-0.8c1-0.7,1.6-1.8,1.6-3c0,0,0,0,0,0c0-0.1,0-0.1,0-0.2c0,0,0,0,0,0c0-0.4-0.1-0.8-0.3-1.2c0,0,0,0,0,0
			c-0.3-0.7-0.8-1.3-1.5-1.7c0,0,0,0,0,0c-0.2-0.1-0.4-0.2-0.6-0.3c0,0,0,0,0,0c-0.1,0-0.2-0.1-0.3-0.1c0,0,0,0,0,0c0,0-0.1,0-0.1,0
			c0,0,0,0,0,0c-0.1,0-0.1,0-0.2,0c0,0,0,0-0.1,0c0,0-0.1,0-0.1,0c0,0,0,0,0,0c-0.1,0-0.1,0-0.2,0c0,0,0,0,0,0c-0.1,0-0.1,0-0.2,0
			c-1.5,0-2.8,0.9-3.4,2.2c-0.3-0.1-0.6-0.3-0.9-0.4C20.6,2.4,21.7,1.5,23,1.1z M26.1,7.9C26,7.9,26,7.9,26.1,7.9
			c-0.4-0.4-0.7-0.8-1.1-1.1c-1-0.9-2-1.7-3.2-2.3c0.4-1,1.5-1.7,2.6-1.7c0,0,0,0,0,0c0,0,0.1,0,0.1,0c0,0,0,0,0,0c0,0,0.1,0,0.1,0
			c0,0,0,0,0,0c0,0,0.1,0,0.1,0c0,0,0,0,0,0c0,0,0.1,0,0.1,0c0,0,0,0,0,0c0,0,0.1,0,0.1,0c0,0,0,0,0,0c0.1,0,0.2,0,0.3,0.1
			c0,0,0,0,0,0c1,0.4,1.8,1.4,1.9,2.5c0,0,0,0,0,0c0,0,0,0.1,0,0.1c0,0,0,0,0,0C27.2,6.5,26.8,7.4,26.1,7.9z M0.9,6
			c0-0.1,0-0.3,0-0.4C0.9,3,3,0.9,5.6,0.9c0.5,0,0.9,0.1,1.4,0.2c1.3,0.4,2.4,1.4,3,2.6C9.6,3.8,9.3,4,9,4.1
			C8.4,2.8,7.1,1.9,5.6,1.9c-0.1,0-0.1,0-0.2,0c0,0,0,0,0,0c-0.1,0-0.1,0-0.2,0c0,0,0,0,0,0c0,0-0.1,0-0.1,0c0,0,0,0-0.1,0
			c-0.1,0-0.1,0-0.2,0c0,0,0,0,0,0c0,0-0.1,0-0.1,0c0,0,0,0,0,0C4.5,2,4.4,2.1,4.3,2.1c0,0,0,0,0,0C4.1,2.2,3.9,2.3,3.7,2.4
			c0,0,0,0,0,0C3,2.8,2.5,3.4,2.2,4.1c0,0,0,0,0,0C2,4.6,1.9,5,1.9,5.4c0,0,0,0,0,0c0,0.1,0,0.1,0,0.2c0,0,0,0,0,0c0,0,0,0,0,0
			c0,1.2,0.6,2.3,1.6,3C3.3,8.9,3.1,9.2,2.9,9.5C1.8,8.7,1,7.4,0.9,6z M8.2,4.5C7.1,5.1,6,5.9,5.1,6.8C4.7,7.2,4.3,7.6,4,8
			c0,0,0,0,0,0C3.2,7.4,2.8,6.5,2.8,5.6c0,0,0,0,0,0c0,0,0-0.1,0-0.1c0,0,0,0,0,0c0.1-1.2,0.8-2.1,1.9-2.5c0,0,0,0,0,0
			c0.1,0,0.2-0.1,0.3-0.1c0,0,0,0,0,0c0,0,0.1,0,0.1,0c0,0,0,0,0,0c0,0,0.1,0,0.1,0c0,0,0,0,0,0c0,0,0.1,0,0.1,0c0,0,0,0,0,0
			c0,0,0.1,0,0.1,0c0,0,0,0,0,0c0,0,0.1,0,0.1,0c0,0,0,0,0,0C6.8,2.8,7.8,3.4,8.2,4.5z M24.6,25.2c-0.1,0.1-0.2,0.2-0.2,0.2
			c-2.5,2.4-5.8,3.7-9.3,3.7s-6.8-1.3-9.3-3.7c-0.1-0.1-0.2-0.2-0.2-0.2c-2.3-2.4-3.6-5.5-3.6-8.8c0-3.4,1.4-6.6,3.9-9
			C7.9,5.2,10.9,4,14,3.7c0.3,0,0.7,0,1,0s0.7,0,1,0c3.2,0.2,6.1,1.5,8.3,3.7c2.5,2.4,3.9,5.6,3.9,9C28.2,19.7,26.9,22.8,24.6,25.2z
			"/>
	</g>
	<g>
		<path d="M41,17.3v5.1h-4V7.1h6.3c1.3,0,2.7,0.3,3.9,1.4c1.2,1.1,1.4,2.4,1.4,3.7c0,1.2-0.2,2.6-1.4,3.8c-1.2,1.2-2.6,1.3-3.8,1.3
			H41z M41,14.1h1.3c0.4,0,1.2,0,1.7-0.5c0.5-0.4,0.5-1,0.5-1.4c0-0.4,0-1-0.5-1.4c-0.5-0.5-1.2-0.6-1.7-0.6H41V14.1z"/>
		<path d="M57.5,12.1h3.7v10.3h-3.7v-1.1c-0.8,1.2-2.2,1.5-3.2,1.5c-1.1,0-2.5-0.3-3.7-1.6c-1-1.1-1.5-2.2-1.5-3.8
			c0-1.9,0.8-3.3,1.6-4.1c0.9-0.9,2.2-1.4,3.7-1.4c1.7,0,2.6,0.8,3.1,1.3V12.1z M53.6,15.6c-0.5,0.5-0.7,1.1-0.7,1.7
			c0,0.6,0.3,1.2,0.7,1.7c0.4,0.4,1,0.7,1.7,0.7c0.6,0,1.2-0.3,1.7-0.7c0.3-0.3,0.7-0.8,0.7-1.7c0-0.5-0.1-1.1-0.7-1.7
			c-0.3-0.3-0.9-0.7-1.7-0.7C54.8,14.9,54.2,15.1,53.6,15.6z"/>
		<path d="M63.1,12.1h3.7v1.3c1-1.3,2.4-1.5,3.3-1.5c1.1,0,2.2,0.3,3,1.1c0.9,0.9,1,1.7,1,2.9v6.5h-3.7v-5.2c0-0.6,0-1.5-0.5-2
			c-0.3-0.4-0.8-0.4-1.2-0.4c-0.6,0-1.1,0.2-1.4,0.5c-0.4,0.3-0.6,1-0.6,1.6v5.5h-3.7V12.1z"/>
		<path d="M87.6,22.4h-3.7v-1.1c-1,1.3-2.4,1.5-3.1,1.5c-1.5,0-2.6-0.5-3.6-1.4c-1-1-1.7-2.5-1.7-4.1c0-1.7,0.7-3.2,1.7-4.1
			c1-1,2.4-1.4,3.6-1.4c1.4,0,2.4,0.6,3.1,1.3V5.7h3.7V22.4z M83.3,19c0.5-0.4,0.8-1.1,0.8-1.7c0-0.6-0.3-1.3-0.7-1.7
			c-0.4-0.4-1-0.7-1.7-0.7c-0.8,0-1.3,0.3-1.6,0.7c-0.4,0.4-0.7,1.1-0.7,1.7c0,0.5,0.2,1.1,0.7,1.6c0.5,0.5,1.1,0.7,1.6,0.7
			C82.3,19.6,82.9,19.4,83.3,19z"/>
		<path d="M97.5,12.1h3.7v10.3h-3.7v-1.1c-0.8,1.2-2.2,1.5-3.2,1.5c-1.1,0-2.5-0.3-3.7-1.6c-1-1.1-1.5-2.2-1.5-3.8
			c0-1.9,0.8-3.3,1.6-4.1c0.9-0.9,2.2-1.4,3.7-1.4c1.7,0,2.6,0.8,3.1,1.3V12.1z M93.6,15.6c-0.5,0.5-0.7,1.1-0.7,1.7
			c0,0.6,0.3,1.2,0.7,1.7c0.4,0.4,1,0.7,1.7,0.7c0.6,0,1.2-0.3,1.7-0.7c0.3-0.3,0.7-0.8,0.7-1.7c0-0.5-0.1-1.1-0.7-1.7
			c-0.3-0.3-0.9-0.7-1.7-0.7C94.8,14.9,94.2,15.1,93.6,15.6z"/>
		<path d="M104.5,17.8c0.8,0.8,2.1,1.6,3.5,1.6c0.8,0,1.3-0.3,1.5-0.5c0.2-0.2,0.4-0.6,0.4-1c0-0.3-0.1-0.6-0.4-0.9
			c-0.4-0.3-1-0.5-2-0.8l-1-0.3c-0.6-0.2-1.6-0.6-2.2-1.2c-0.8-0.8-0.9-1.9-0.9-2.7c0-1.9,0.7-3,1.4-3.7c0.8-0.8,2.1-1.4,3.9-1.4
			c1.5,0,3.3,0.5,4.7,1.2l-1.6,3.1c-1.2-0.9-2.1-1-2.6-1c-0.4,0-0.9,0.1-1.3,0.5c-0.2,0.2-0.4,0.5-0.4,0.8c0,0.3,0,0.5,0.2,0.7
			c0.1,0.1,0.4,0.4,1.3,0.7l1.2,0.4c1,0.3,2,0.6,2.8,1.5c0.8,0.8,1,1.7,1,2.7c0,1.4-0.3,2.8-1.4,3.9c-1.3,1.3-2.9,1.6-4.5,1.6
			c-1,0-1.9-0.1-3-0.5c-0.3-0.1-1.2-0.5-2.3-1.2L104.5,17.8z"/>
		<path d="M118.5,12.1l2.4,5.4l2.6-5.4h2.3l2.6,5.6l2.6-5.6h4.1l-5.4,10.3h-2.5l-2.6-5.6l-2.5,5.6h-2.5l-5.3-10.3H118.5z"/>
		<path d="M142.8,12.1h3.7v10.3h-3.7v-1.1c-0.8,1.2-2.2,1.5-3.2,1.5c-1.1,0-2.5-0.3-3.7-1.6c-1-1.1-1.5-2.2-1.5-3.8
			c0-1.9,0.8-3.3,1.6-4.1c0.9-0.9,2.2-1.4,3.7-1.4c1.7,0,2.6,0.8,3.1,1.3V12.1z M139,15.6c-0.5,0.5-0.7,1.1-0.7,1.7
			c0,0.6,0.3,1.2,0.7,1.7c0.4,0.4,1,0.7,1.7,0.7c0.6,0,1.2-0.3,1.7-0.7c0.3-0.3,0.7-0.8,0.7-1.7c0-0.5-0.1-1.1-0.7-1.7
			c-0.3-0.3-0.9-0.7-1.7-0.7C140.1,14.9,139.5,15.1,139,15.6z"/>
		<path d="M152.1,27.7h-3.7V12.1h3.7v1.1c0.6-0.8,1.6-1.5,3.1-1.5c1.6,0,2.8,0.7,3.7,1.5c0.8,0.8,1.6,2.2,1.6,4
			c0,1.7-0.7,3.1-1.7,4.1c-1.1,1.1-2.5,1.4-3.5,1.4c-0.7,0-2-0.1-3.2-1.3V27.7z M152.7,15.6c-0.5,0.5-0.7,1.1-0.7,1.7
			c0,0.6,0.3,1.2,0.7,1.6c0.4,0.4,1,0.7,1.7,0.7c0.6,0,1.2-0.3,1.6-0.7c0.4-0.4,0.7-1,0.7-1.6c0-0.6-0.3-1.2-0.7-1.7
			c-0.4-0.4-1-0.7-1.6-0.7C153.8,14.9,153.2,15.2,152.7,15.6z"/>
		<path d="M162.6,22.1c-0.3-0.3-0.7-0.8-0.7-1.7c0-0.8,0.4-1.4,0.7-1.7c0.6-0.6,1.2-0.7,1.7-0.7c0.6,0,1.2,0.2,1.7,0.7
			c0.4,0.4,0.7,0.9,0.7,1.7c0,0.8-0.3,1.3-0.7,1.7c-0.5,0.5-1.1,0.7-1.7,0.7C163.8,22.8,163.1,22.7,162.6,22.1z"/>
		<path d="M170.3,5.8c1.1,0,2.1,0.9,2.1,2.1c0,1.1-0.9,2.1-2.1,2.1c-1.1,0-2.1-0.9-2.1-2.1C168.2,6.7,169.1,5.8,170.3,5.8z
			 M172.1,12.1v10.3h-3.7V12.1H172.1z"/>
		<path d="M184.3,21.1c-1.4,1.3-2.9,1.7-4.6,1.7c-1.5,0-3.1-0.3-4.6-1.7c-1.1-1.1-1.6-2.4-1.6-3.8c0-1.8,0.8-3,1.6-3.8
			c0.8-0.8,2.3-1.7,4.6-1.7c2.3,0,3.7,0.9,4.6,1.7c0.8,0.7,1.6,1.9,1.6,3.8C185.9,18.6,185.5,20,184.3,21.1z M178.1,15.6
			c-0.5,0.4-0.7,1.1-0.7,1.7c0,0.6,0.3,1.2,0.7,1.6c0.4,0.4,1,0.7,1.7,0.7c0.6,0,1.2-0.3,1.6-0.7c0.5-0.4,0.7-1,0.7-1.6
			c0-0.6-0.3-1.2-0.7-1.7c-0.4-0.4-1.1-0.7-1.6-0.7C179.2,14.9,178.5,15.2,178.1,15.6z"/>
	</g>
</g>
</svg>
